<?xml version="1.0" encoding="iso-8859-1"?>
<!-- Uploaded to: SVG Repo, www.svgrepo.com, Generator: SVG Repo Mixer Tools -->
<svg height="800px" width="800px" version="1.1" id="Layer_1" xmlns="http://www.w3.org/2000/svg" xmlns:xlink="http://www.w3.org/1999/xlink" 
	 viewBox="0 0 512 512" xml:space="preserve">
<path style="fill:#8AC6B6;" d="M479.757,239.58c0,125.897-101.54,227.957-226.794,227.957
	c-125.255,0-226.794-102.06-226.794-227.957S127.708,11.623,252.963,11.623C378.216,11.622,479.757,113.683,479.757,239.58z"/>
<g>
	<path style="fill:#86BAA8;" d="M399.497,65.608c20.433,34.228,32.191,74.287,32.191,117.111
		c0,125.897-101.54,227.959-226.794,227.959c-55.87,0-107.009-20.317-146.534-53.986c39.638,66.402,111.952,110.847,194.602,110.847
		c125.253,0,226.794-102.06,226.794-227.957C479.757,169.839,448.586,107.423,399.497,65.608z"/>
	<path style="fill:#86BAA8;" d="M426.768,93.153c33.066,39.609,52.987,90.676,52.987,146.428
		c0,125.897-101.539,227.957-226.792,227.957c-125.255,0-226.794-102.06-226.794-227.957c0-55.751,19.923-106.817,52.987-146.428
		c49.724,24.209,109.497,38.334,173.806,38.334C317.27,131.486,377.043,117.362,426.768,93.153z"/>
</g>
<path style="fill:#79AE98;" d="M426.768,93.153c-3.657,1.781-7.376,3.5-11.141,5.17c10.357,26.103,16.06,54.579,16.06,84.396
	c0,125.897-101.54,227.959-226.794,227.959c-55.87,0-107.009-20.317-146.536-53.986c39.639,66.402,111.954,110.847,194.604,110.847
	c125.253,0,226.794-102.06,226.794-227.957C479.757,183.828,459.834,132.762,426.768,93.153z"/>
<path style="fill:#63A097;" d="M479.129,222.659c0.409,5.587,0.626,11.229,0.626,16.922c0,125.897-101.539,227.957-226.792,227.957
	c-125.255,0-226.794-102.06-226.794-227.957c0-5.693,0.219-11.334,0.626-16.922c66.905,18.412,144.041,28.909,226.167,28.909
	C335.086,251.568,412.223,241.071,479.129,222.659z"/>
<path style="fill:#5D968C;" d="M479.129,222.659c-17.186,4.729-35.053,8.933-53.5,12.574
	c-23.596,100.58-113.463,175.444-220.735,175.444c-55.87,0-107.009-20.317-146.536-53.986
	c39.639,66.402,111.954,110.847,194.604,110.847c125.253,0,226.794-102.06,226.794-227.957
	C479.757,233.888,479.538,228.246,479.129,222.659z"/>
<path style="fill:#458081;" d="M426.337,386.518c-41.602,49.542-103.827,81.019-173.376,81.019
	c-69.55,0-131.774-31.477-173.377-81.019c49.865-23.315,109.409-36.877,173.377-36.877S376.474,363.203,426.337,386.518z"/>
<path style="fill:#397676;" d="M204.893,410.677c-40.878,0-79.227-10.877-112.348-29.898c-4.386,1.843-8.711,3.753-12.961,5.74
	c41.602,49.542,103.827,81.019,173.377,81.019c69.549,0,131.772-31.477,173.376-81.019c-24.183-11.307-50.651-20.313-78.786-26.598
	C308.583,391.655,258.951,410.677,204.893,410.677z"/>
<path style="fill:#9FD7C5;" d="M337.303,239.58c0,125.897-37.761,227.957-84.342,227.957c-46.582,0-84.343-102.06-84.343-227.957
	S206.38,11.623,252.962,11.623C299.543,11.622,337.303,113.683,337.303,239.58z"/>
<path style="fill:#86BAA8;" d="M337.269,233.151c0.022,2.137,0.034,4.278,0.034,6.43c0,125.897-37.761,227.957-84.342,227.957
	c-46.582,0-84.343-102.06-84.343-227.957c0-2.15,0.014-4.293,0.035-6.43L337.269,233.151L337.269,233.151z"/>
<path style="fill:#72A48F;" d="M204.893,410.677c-2.585,0-5.154-0.059-7.719-0.146c14.868,35.472,34.396,57.006,55.787,57.006
	c27.082,0,51.178-34.505,66.61-88.127C285.924,399.274,246.736,410.677,204.893,410.677z"/>
<path style="fill:#9FD7C5;" d="M180.353,355.581c-7.449-33.985-11.731-73.636-11.731-116.001c0-2.15,0.014-4.293,0.035-6.43h168.613
	c0.022,2.137,0.034,4.278,0.034,6.43c0,42.365-4.283,82.016-11.731,116.001H180.353z"/>
<path style="fill:#BAEEC3;" d="M168.669,247.81c-0.031-2.573-0.049-5.635-0.049-8.231c0-41.911,4.062-80.581,11.363-114.323
	c24.415,4.452,50.094,6.229,76.406,6.229c23.95,0,47.146-2.52,69.551-6.229c7.148,33.482,11.363,72.89,11.363,114.323
	c0,2.595-0.016,5.652-0.047,8.225L168.669,247.81z"/>
<path style="fill:#FF4112;" d="M278.434,405.257c-44.956-64.875,50.1-135.037,97.562-71.983
	c47.463-63.054,142.52,7.109,97.563,71.983C383.449,535.314,368.541,535.313,278.434,405.257L278.434,405.257z"/>
<path style="fill:#C30C16;" d="M473.557,405.257c-45.055,65.028-71.308,97.542-97.562,97.542V333.273
	C423.46,270.22,518.515,340.383,473.557,405.257z"/>
<path d="M375.476,512c-31.358,0-57.485-30.089-107.879-102.065c-26.706-38.14-11.674-79.271,16.977-100.187
	c25.54-18.646,63.086-22.077,90.902,3.664c27.819-25.746,65.366-22.308,90.906-3.662c28.652,20.918,43.679,62.047,16.97,100.187
	C432.96,481.911,406.833,512,375.476,512z M328.966,319.04c-10.792,0-21.359,3.976-30.065,10.331
	c-19.121,13.959-30.061,39.972-11.398,66.623c0,0,0,0,0.001,0c42.583,60.821,67.88,91.703,87.973,91.703
	c20.091,0,45.39-30.882,87.972-91.703c18.665-26.651,7.727-52.665-11.392-66.623c-19.115-13.955-47.219-16.44-66.908,9.45
	c-2.298,3.021-5.875,4.794-9.67,4.794s-7.372-1.772-9.67-4.794C355.082,324.725,341.865,319.04,328.966,319.04z M247.069,476.811
	c-0.136,0-0.273-0.001-0.41-0.007l-0.859-0.023c-0.039-0.001-0.111-0.003-0.15-0.004c-62.104-1.922-120.186-27.568-163.547-72.212
	c-43.457-44.74-67.389-103.735-67.389-166.118C14.715,106.967,121.682,0,253.16,0s238.444,106.967,238.444,238.446
	c0,12.256-0.938,24.561-2.79,36.575c-1.022,6.632-7.221,11.183-13.859,10.157c-6.631-1.022-11.179-7.228-10.156-13.859
	c1.662-10.792,2.506-21.852,2.506-32.873c0-1.528-0.016-3.046-0.047-4.566c-36.574,10.111-75.776,17.61-116.436,22.335
	c-0.024,0.845-0.05,1.689-0.078,2.531c-0.22,6.707-5.831,11.974-12.544,11.743c-6.453-0.213-11.565-5.421-11.743-11.791
	c-26.096,2.292-52.686,3.46-79.468,3.46c-22.515,0-44.943-0.832-67.071-2.468c1.03,28.665,4.109,55.17,8.663,78.769
	c7.762-1.191,15.583-2.164,23.443-2.911c6.69-0.639,12.611,4.265,13.247,10.944c0.636,6.68-4.265,12.61-10.944,13.246
	c-6.848,0.651-13.66,1.484-20.425,2.491c13.6,52.913,34.928,86.695,55.377,90.484c6.25,1.157,10.551,6.939,9.866,13.259
	C258.469,472.156,253.245,476.809,247.069,476.811z M100.348,389.056c27.738,28.151,63.313,48.585,103.448,57.907
	c-9.251-12.741-17.558-29.36-24.722-49.612c-3.414-9.651-6.487-19.94-9.201-30.758C145.428,371.842,121.955,379.411,100.348,389.056
	z M39.018,237.159c-0.003,0.432-0.004,0.856-0.004,1.288c0,49.692,16.59,95.295,44.655,131.536
	c24.946-11.807,52.358-20.96,80.979-27.117c-5.075-26.532-8.182-55.436-9.114-85.312C115.001,253.427,75.733,246.575,39.018,237.159
	z M179.547,235.3c22.228,1.697,44.785,2.561,67.441,2.561c26.914,0,53.618-1.208,79.779-3.58
	c-0.242-35.461-3.55-67.826-8.958-95.951c-21.19,3.271-42.956,4.939-64.995,4.939c-21.805,0-43.339-1.632-64.32-4.837
	C183.043,166.803,179.732,199.481,179.547,235.3z M40.584,212.457c36.005,9.504,74.674,16.441,114.678,20.641
	c0.301-34.888,3.529-68.547,9.381-99.035c-28.367-6.08-55.458-15.116-80.525-26.943C60.888,136.956,45.367,173.073,40.584,212.457z
	 M341.65,133.92c5.791,30.126,9.022,63.352,9.394,97.806c40.016-4.798,78.503-12.366,114.269-22.538
	c-5.245-38.215-20.613-73.256-43.297-102.308C396.998,118.733,369.961,127.802,341.65,133.92z M193.798,114.662
	c19.248,2.854,39.002,4.308,59.015,4.308c20.248,0,40.226-1.488,59.685-4.406c-14.441-56.183-37.659-90.264-59.338-90.264
	C231.469,24.299,208.236,58.42,193.798,114.662z M100.845,88.059c21.643,9.637,44.834,17.103,69.044,22.281
	c3.251-12.879,7.013-25.008,11.263-36.218c6.74-17.784,14.512-32.596,23.075-44.184C164.337,39.297,128.714,59.837,100.845,88.059z
	 M302.093,29.939c8.563,11.588,16.335,26.4,23.075,44.184c4.235,11.168,7.985,23.25,11.226,36.078
	c24.147-5.211,47.281-12.702,68.867-22.355C377.425,59.733,341.881,39.274,302.093,29.939z"/>
</svg>